<svg width="142" height="26" viewBox="0 0 142 26" fill="none" xmlns="http://www.w3.org/2000/svg">
<path d="M13.072 2.696V5.064H3.376V12.584H11.248V14.952H3.376V25H0.464V2.696H13.072ZM24.237 25.288C22.5943 25.288 21.101 24.9147 19.757 24.168C18.4343 23.4213 17.389 22.3653 16.621 21C15.8743 19.6133 15.501 18.0133 15.501 16.2C15.501 14.408 15.885 12.8293 16.653 11.464C17.4423 10.0773 18.509 9.02133 19.853 8.296C21.197 7.54933 22.701 7.176 24.365 7.176C26.029 7.176 27.533 7.54933 28.877 8.296C30.221 9.02133 31.277 10.0667 32.045 11.432C32.8343 12.7973 33.229 14.3867 33.229 16.2C33.229 18.0133 32.8237 19.6133 32.013 21C31.2237 22.3653 30.1463 23.4213 28.781 24.168C27.4157 24.9147 25.901 25.288 24.237 25.288ZM24.237 22.728C25.2823 22.728 26.2637 22.4827 27.181 21.992C28.0983 21.5013 28.8343 20.7653 29.389 19.784C29.965 18.8027 30.253 17.608 30.253 16.2C30.253 14.792 29.9757 13.5973 29.421 12.616C28.8663 11.6347 28.141 10.9093 27.245 10.44C26.349 9.94933 25.3783 9.704 24.333 9.704C23.2663 9.704 22.285 9.94933 21.389 10.44C20.5143 10.9093 19.8103 11.6347 19.277 12.616C18.7437 13.5973 18.477 14.792 18.477 16.2C18.477 17.6293 18.733 18.8347 19.245 19.816C19.7783 20.7973 20.4823 21.5333 21.357 22.024C22.2317 22.4933 23.1917 22.728 24.237 22.728ZM39.9698 10.312C40.4818 9.30933 41.2071 8.53067 42.1458 7.976C43.1058 7.42133 44.2684 7.144 45.6338 7.144V10.152H44.8658C41.6018 10.152 39.9698 11.9227 39.9698 15.464V25H37.0578V7.464H39.9698V10.312ZM58.7873 25L51.9073 17.256V25H48.9953V1.32H51.9073V15.24L58.6593 7.464H62.7233L54.4673 16.2L62.7553 25H58.7873ZM72.6 9.864H68.92V25H66.008V9.864H63.736V7.464H66.008V6.216C66.008 4.25333 66.5093 2.824 67.512 1.928C68.536 1.01067 70.168 0.551998 72.408 0.551998V2.984C71.128 2.984 70.2213 3.24 69.688 3.752C69.176 4.24267 68.92 5.064 68.92 6.216V7.464H72.6V9.864ZM74.9073 16.168C74.9073 14.376 75.2699 12.808 75.9953 11.464C76.7206 10.0987 77.7126 9.04267 78.9713 8.296C80.2513 7.54933 81.6699 7.176 83.2273 7.176C84.7633 7.176 86.0966 7.50667 87.2273 8.168C88.3579 8.82933 89.2006 9.66133 89.7553 10.664V7.464H92.6993V25H89.7553V21.736C89.1793 22.76 88.3153 23.6133 87.1633 24.296C86.0326 24.9573 84.7099 25.288 83.1953 25.288C81.6379 25.288 80.2299 24.904 78.9713 24.136C77.7126 23.368 76.7206 22.2907 75.9953 20.904C75.2699 19.5173 74.9073 17.9387 74.9073 16.168ZM89.7553 16.2C89.7553 14.8773 89.4886 13.7253 88.9553 12.744C88.4219 11.7627 87.6966 11.016 86.7793 10.504C85.8833 9.97067 84.8913 9.704 83.8033 9.704C82.7153 9.704 81.7233 9.96 80.8273 10.472C79.9313 10.984 79.2166 11.7307 78.6833 12.712C78.1499 13.6933 77.8833 14.8453 77.8833 16.168C77.8833 17.512 78.1499 18.6853 78.6833 19.688C79.2166 20.6693 79.9313 21.4267 80.8273 21.96C81.7233 22.472 82.7153 22.728 83.8033 22.728C84.8913 22.728 85.8833 22.472 86.7793 21.96C87.6966 21.4267 88.4219 20.6693 88.9553 19.688C89.4886 18.6853 89.7553 17.5227 89.7553 16.2ZM96.5323 16.2C96.5323 14.3867 96.8949 12.808 97.6203 11.464C98.3456 10.0987 99.3483 9.04267 100.628 8.296C101.93 7.54933 103.412 7.176 105.076 7.176C107.231 7.176 109.002 7.69867 110.388 8.744C111.796 9.78933 112.724 11.24 113.172 13.096H110.036C109.738 12.0293 109.151 11.1867 108.276 10.568C107.423 9.94933 106.356 9.64 105.076 9.64C103.412 9.64 102.068 10.216 101.044 11.368C100.02 12.4987 99.5083 14.1093 99.5083 16.2C99.5083 18.312 100.02 19.944 101.044 21.096C102.068 22.248 103.412 22.824 105.076 22.824C106.356 22.824 107.423 22.5253 108.276 21.928C109.13 21.3307 109.716 20.4773 110.036 19.368H113.172C112.703 21.16 111.764 22.6 110.356 23.688C108.948 24.7547 107.188 25.288 105.076 25.288C103.412 25.288 101.93 24.9147 100.628 24.168C99.3483 23.4213 98.3456 22.3653 97.6203 21C96.8949 19.6347 96.5323 18.0347 96.5323 16.2ZM120.61 9.864V20.2C120.61 21.0533 120.791 21.6613 121.154 22.024C121.516 22.3653 122.146 22.536 123.042 22.536H125.186V25H122.562C120.94 25 119.724 24.6267 118.914 23.88C118.103 23.1333 117.698 21.9067 117.698 20.2V9.864H115.426V7.464H117.698V3.048H120.61V7.464H125.186V9.864H120.61ZM134.922 25.288C133.578 25.288 132.373 25.064 131.306 24.616C130.239 24.1467 129.397 23.5067 128.778 22.696C128.159 21.864 127.818 20.9147 127.754 19.848H130.762C130.847 20.7227 131.253 21.4373 131.978 21.992C132.725 22.5467 133.695 22.824 134.89 22.824C135.999 22.824 136.874 22.5787 137.514 22.088C138.154 21.5973 138.474 20.9787 138.474 20.232C138.474 19.464 138.133 18.8987 137.45 18.536C136.767 18.152 135.711 17.7787 134.282 17.416C132.981 17.0747 131.914 16.7333 131.082 16.392C130.271 16.0293 129.567 15.5067 128.97 14.824C128.394 14.12 128.106 13.2027 128.106 12.072C128.106 11.176 128.373 10.3547 128.906 9.608C129.439 8.86133 130.197 8.27467 131.178 7.848C132.159 7.4 133.279 7.176 134.538 7.176C136.479 7.176 138.047 7.66667 139.242 8.648C140.437 9.62933 141.077 10.9733 141.162 12.68H138.25C138.186 11.7627 137.813 11.0267 137.13 10.472C136.469 9.91733 135.573 9.64 134.442 9.64C133.397 9.64 132.565 9.864 131.946 10.312C131.327 10.76 131.018 11.3467 131.018 12.072C131.018 12.648 131.199 13.128 131.562 13.512C131.946 13.8747 132.415 14.1733 132.97 14.408C133.546 14.6213 134.335 14.8667 135.338 15.144C136.597 15.4853 137.621 15.8267 138.41 16.168C139.199 16.488 139.871 16.9787 140.426 17.64C141.002 18.3013 141.301 19.1653 141.322 20.232C141.322 21.192 141.055 22.056 140.522 22.824C139.989 23.592 139.231 24.2 138.25 24.648C137.29 25.0747 136.181 25.288 134.922 25.288Z" fill="#4C42E8"/>
</svg>
